<svg width="35" height="33" viewBox="0 0 35 33" fill="none" xmlns="http://www.w3.org/2000/svg">
<path d="M32.9999 2H34.4999C34.4999 1.17157 33.8283 0.5 32.9999 0.5V2ZM2 2V0.5C1.17157 0.5 0.5 1.17157 0.5 2L2 2ZM2 11.1579H0.5C0.5 11.9863 1.17157 12.6579 2 12.6579L2 11.1579ZM32.9999 11.1579V12.6579C33.8283 12.6579 34.4999 11.9863 34.4999 11.1579H32.9999ZM0.942083 28.4334C0.354786 29.0176 0.352332 29.9674 0.936604 30.5547C1.52087 31.142 2.47062 31.1444 3.05792 30.5602L0.942083 28.4334ZM11.436 20.1093L12.4652 19.0181C11.876 18.4625 10.9522 18.4748 10.3781 19.0459L11.436 20.1093ZM16.535 24.9178L15.5059 26.0091C16.0925 26.5623 17.0116 26.5528 17.5866 25.9875L16.535 24.9178ZM22.7685 18.7896L23.8073 17.7075C23.2219 17.1455 22.2956 17.151 21.7169 17.72L22.7685 18.7896ZM25.2021 23.2052C25.7997 23.7789 26.7493 23.7595 27.323 23.1619C27.8967 22.5643 27.8773 21.6147 27.2797 21.041L25.2021 23.2052ZM34.4999 10.526C34.4999 9.69756 33.8283 9.02599 32.9999 9.02599C32.1715 9.02599 31.4999 9.69756 31.4999 10.526H34.4999ZM31.4999 30.368C31.4999 31.1965 32.1715 31.868 32.9999 31.868C33.8283 31.868 34.4999 31.1965 34.4999 30.368H31.4999ZM3.5 10.526C3.5 9.69756 2.82843 9.02599 2 9.02599C1.17157 9.02599 0.5 9.69756 0.5 10.526H3.5ZM0.5 21.2102C0.5 22.0386 1.17157 22.7102 2 22.7102C2.82843 22.7102 3.5 22.0386 3.5 21.2102H0.5ZM8.98712 29.5C8.15869 29.5 7.48712 30.1716 7.48712 31C7.48712 31.8284 8.15869 32.5 8.98712 32.5V29.5ZM33 32.5C33.8284 32.5 34.5 31.8284 34.5 31C34.5 30.1716 33.8284 29.5 33 29.5V32.5ZM12.075 5.07884C11.2466 5.07884 10.575 5.75042 10.575 6.57884C10.575 7.40727 11.2466 8.07884 12.075 8.07884V5.07884ZM28.3499 8.07884C29.1783 8.07884 29.8499 7.40727 29.8499 6.57884C29.8499 5.75042 29.1783 5.07884 28.3499 5.07884V8.07884ZM6.64999 5.07648C5.82156 5.07648 5.14999 5.74806 5.14999 6.57648C5.14999 7.40491 5.82156 8.07648 6.64999 8.07648V5.07648ZM7.42499 8.07648C8.25341 8.07648 8.92499 7.40491 8.92499 6.57648C8.92499 5.74806 8.25341 5.07648 7.42499 5.07648V8.07648ZM32.9999 0.5H2V3.5H32.9999V0.5ZM0.5 2V11.1579H3.5V2H0.5ZM2 12.6579H32.9999V9.65787H2V12.6579ZM34.4999 11.1579V2H31.4999V11.1579H34.4999ZM3.05792 30.5602L12.494 21.1727L10.3781 19.0459L0.942083 28.4334L3.05792 30.5602ZM10.4069 21.2006L15.5059 26.0091L17.5641 23.8265L12.4652 19.0181L10.4069 21.2006ZM17.5866 25.9875L23.8201 19.8593L21.7169 17.72L15.4834 23.8482L17.5866 25.9875ZM21.7297 19.8717L25.2021 23.2052L27.2797 21.041L23.8073 17.7075L21.7297 19.8717ZM31.4999 10.526V30.368H34.4999V10.526H31.4999ZM0.5 10.526V21.2102H3.5V10.526H0.5ZM8.98712 32.5H33V29.5H8.98712V32.5ZM12.075 8.07884H28.3499V5.07884H12.075V8.07884ZM6.64999 8.07648H7.42499V5.07648H6.64999V8.07648Z" fill="white"/>
</svg>

