<svg width="29" height="29" viewBox="0 0 29 29" fill="none" xmlns="http://www.w3.org/2000/svg">
<path d="M0 2.63636C0 1.18034 1.18034 0 2.63636 0H10.5455C12.0015 0 13.1818 1.18034 13.1818 2.63636V10.5455C13.1818 12.0015 12.0015 13.1818 10.5455 13.1818H2.63636C1.18034 13.1818 0 12.0015 0 10.5455V2.63636Z" fill="white"/>
<path d="M0 18.4545C0 16.9985 1.18034 15.8182 2.63636 15.8182H10.5455C12.0015 15.8182 13.1818 16.9985 13.1818 18.4545V26.3636C13.1818 27.8197 12.0015 29 10.5455 29H2.63636C1.18034 29 0 27.8197 0 26.3636V18.4545Z" fill="white"/>
<path d="M15.8182 2.63636C15.8182 1.18034 16.9985 0 18.4545 0H26.3636C27.8197 0 29 1.18034 29 2.63636V10.5455C29 12.0015 27.8197 13.1818 26.3636 13.1818H18.4545C16.9985 13.1818 15.8182 12.0015 15.8182 10.5455V2.63636Z" fill="white"/>
<path d="M15.8182 18.4545C15.8182 16.9985 16.9985 15.8182 18.4545 15.8182H26.3636C27.8197 15.8182 29 16.9985 29 18.4545V26.3636C29 27.8197 27.8197 29 26.3636 29H18.4545C16.9985 29 15.8182 27.8197 15.8182 26.3636V18.4545Z" fill="white"/>
</svg>

