<svg width="33" height="31" viewBox="0 0 33 31" fill="none" xmlns="http://www.w3.org/2000/svg">
<path d="M19.1916 29.2232C19.6679 28.907 20.1385 28.5812 20.6253 28.2813C20.7329 28.2152 20.8987 28.2449 21.0378 28.2295C21.0511 28.2832 21.0644 28.3359 21.0778 28.3896C20.4624 28.6904 19.847 28.9923 19.2316 29.2931C19.2173 29.2701 19.2049 29.2462 19.1916 29.2232Z" fill="white"/>
<path d="M0.500953 4.81533C0.959168 3.4183 2.08994 2.71595 3.30169 2.12379C4.87924 1.35245 6.56921 0.960554 8.29918 0.726757C9.94533 0.503499 11.5981 0.447925 13.2548 0.547576C15.6278 0.691304 17.955 1.07075 20.1127 2.1305C20.7872 2.46203 21.4426 2.88651 22.0018 3.38764C23.2383 4.4953 23.2269 5.72273 22.0409 6.88214C21.1721 7.73205 20.0994 8.24084 18.9772 8.64903C16.9205 9.39642 14.7828 9.70112 12.6089 9.77202C10.1721 9.8506 7.7619 9.64363 5.40795 8.96332C4.25336 8.62987 3.14355 8.18814 2.14329 7.504C1.38785 6.98754 0.760068 6.36472 0.5 5.44582C0.500953 5.23406 0.500953 5.02517 0.500953 4.81533Z" fill="white"/>
<path d="M0.500953 7.58065C0.912489 7.89398 1.30688 8.23605 1.74032 8.51584C3.27977 9.50661 4.99546 10.0499 6.77212 10.3862C10.5788 11.1077 14.3722 11.0493 18.1265 10.0317C19.8584 9.56218 21.4969 8.88475 22.8335 7.6209C22.8449 7.61036 22.8706 7.61419 22.9087 7.60844C22.9087 8.86079 22.9087 10.1093 22.9087 11.3521C22.8801 11.3684 22.862 11.3885 22.8449 11.3875C21.9618 11.3396 21.4521 11.8417 21.3312 12.7108C21.2835 13.0519 21.1959 13.3873 21.1263 13.7255C21.053 14.0819 20.7377 14.2238 20.4385 14.0292C20.0623 13.7849 19.6936 13.53 19.3154 13.2905C18.7543 12.935 18.1684 12.9973 17.6921 13.4668C17.1863 13.965 16.6957 14.4796 16.187 14.975C15.7992 15.3535 15.6049 15.7846 15.7573 16.3825C15.0619 16.463 14.3865 16.5656 13.7063 16.6154C11.1685 16.8013 8.6507 16.6652 6.16815 16.0692C4.83733 15.7492 3.55318 15.2998 2.3843 14.5658C1.78796 14.1912 1.23638 13.76 0.862 13.1487C0.711484 12.9034 0.619079 12.6226 0.500953 12.3582C0.500953 10.7657 0.500953 9.17316 0.500953 7.58065Z" fill="white"/>
<path d="M0.500953 21.3459C2.06993 22.8541 4.02568 23.567 6.08051 24.0423C9.56523 24.8481 13.0709 24.8682 16.5833 24.2128C16.6595 24.1985 16.7376 24.1956 16.8881 24.1793C16.8138 24.3211 16.7757 24.4112 16.7233 24.4917C16.4623 24.8951 16.1946 25.2937 15.9364 25.699C15.5668 26.2777 15.6221 26.867 16.0984 27.3566C16.5861 27.8578 17.092 28.3417 17.574 28.8485C17.9293 29.2213 18.3313 29.4301 18.8724 29.4024C18.4142 29.5394 17.9608 29.6946 17.4968 29.8096C14.6894 30.5062 11.8468 30.6509 8.97555 30.3548C7.16651 30.168 5.40128 29.7971 3.72465 29.0718C3.28644 28.8821 2.85966 28.6588 2.45099 28.4126C1.56885 27.8817 0.822942 27.2187 0.500953 26.1877C0.500953 24.5722 0.500953 22.9586 0.500953 21.3459Z" fill="white"/>
<path d="M0.500953 14.4317C1.84321 15.7597 3.52174 16.4525 5.29268 16.9354C8.69738 17.8639 12.1507 17.9818 15.6325 17.4653C15.6735 17.4595 15.7183 17.4634 15.7564 17.449C16.2308 17.2602 16.5004 17.4777 16.7042 17.8955C16.8386 18.1715 16.75 18.4465 16.4537 18.5097C16.026 18.6007 15.5982 18.6879 15.1696 18.7713C14.4341 18.9141 14.0445 19.3721 14.0388 20.1214C14.0331 20.7921 14.0493 21.4619 14.0331 22.1326C14.0216 22.6155 14.1121 23.0477 14.558 23.429C14.2503 23.4616 14.0131 23.4932 13.7749 23.5095C10.6207 23.7366 7.51041 23.5325 4.50581 22.4651C3.76657 22.2026 3.0521 21.8404 2.37001 21.4475C1.50598 20.9502 0.804842 20.2737 0.501906 19.2705C0.500953 17.6588 0.500953 16.0453 0.500953 14.4317Z" fill="white"/>
<path d="M32.495 21.2137C32.495 21.5491 32.4817 21.8844 32.4988 22.2188C32.5122 22.4699 32.4103 22.5705 32.1711 22.6146C31.5986 22.72 31.0318 22.857 30.4593 22.9662C30.1963 23.0161 30.0306 23.156 29.9372 23.4022C29.519 24.5108 29.379 24.1678 30.1192 25.2927C30.3259 25.607 30.5288 25.9242 30.7393 26.2356C30.8441 26.3908 30.8346 26.5134 30.6965 26.6495C30.1982 27.1401 29.7029 27.6345 29.217 28.1385C29.0589 28.3024 28.9265 28.2909 28.7541 28.174C28.2711 27.8453 27.7767 27.5349 27.2984 27.2005C27.0317 27.0136 26.7859 26.9868 26.4839 27.1228C25.6199 27.5119 25.617 27.5032 25.4275 28.4586C25.3484 28.8591 25.2531 29.2558 25.1845 29.6572C25.1455 29.8891 25.0359 29.9677 24.8054 29.9629C24.129 29.9504 23.4517 29.9533 22.7744 29.9619C22.562 29.9648 22.4553 29.8997 22.4143 29.6754C22.3076 29.089 22.1676 28.5093 22.0609 27.9229C22.0018 27.5991 21.8141 27.4457 21.535 27.2896C20.9244 26.9475 20.4147 27.0079 19.8898 27.462C19.5688 27.7399 19.1811 27.9373 18.8276 28.1788C18.6676 28.289 18.538 28.3033 18.3894 28.151C17.8941 27.6412 17.393 27.1382 16.8871 26.6399C16.7462 26.501 16.7547 26.3831 16.8576 26.2289C17.1891 25.7344 17.5064 25.2295 17.8407 24.737C18.0112 24.4859 17.9846 24.2588 17.9045 23.9723C17.6969 23.2297 17.2425 22.8743 16.4842 22.8254C16.1146 22.8014 15.7526 22.6721 15.3839 22.6069C15.1867 22.5715 15.0962 22.4852 15.0991 22.2744C15.1067 21.573 15.1076 20.8707 15.0981 20.1693C15.0952 19.946 15.1848 19.8598 15.3982 19.8205C15.9602 19.717 16.5175 19.5848 17.0786 19.4746C17.3415 19.4229 17.5083 19.2801 17.5902 19.0281C17.6197 18.939 17.635 18.8384 17.6864 18.7636C18.0875 18.1772 17.9046 17.6742 17.5044 17.173C17.2644 16.8722 17.0815 16.5263 16.8614 16.2091C16.7471 16.0433 16.7481 15.9188 16.8976 15.7722C17.3968 15.2816 17.8903 14.7852 18.378 14.2832C18.5209 14.1356 18.6457 14.1251 18.8134 14.2391C19.2697 14.5515 19.7365 14.8466 20.1918 15.1589C20.4309 15.3228 20.6634 15.3554 20.9215 15.2107C21.0387 15.1446 21.1625 15.0737 21.2921 15.0468C21.8694 14.9271 22.1056 14.5524 22.1695 13.989C22.2171 13.5645 22.3429 13.1496 22.4172 12.7271C22.4515 12.5326 22.5448 12.4674 22.7334 12.4684C23.4308 12.4751 24.129 12.4779 24.8264 12.4664C25.0474 12.4626 25.1426 12.5479 25.1817 12.7616C25.276 13.2761 25.4008 13.7839 25.4875 14.2994C25.5446 14.6396 25.7123 14.8494 26.04 14.9405C26.1496 14.9711 26.2658 15.0047 26.3572 15.0689C26.8469 15.41 27.2756 15.3113 27.7157 14.9501C28.0367 14.6875 28.4102 14.4901 28.7521 14.2506C28.9255 14.1299 29.0551 14.1212 29.2123 14.2851C29.6905 14.7814 30.1773 15.2701 30.6698 15.7521C30.8251 15.9035 30.8432 16.0338 30.7203 16.2149C30.4088 16.6729 30.1173 17.1443 29.8048 17.6014C29.6352 17.8495 29.5905 18.0929 29.7362 18.3641C29.7858 18.4561 29.841 18.5519 29.8591 18.6515C29.9706 19.2628 30.364 19.5062 30.9451 19.5714C31.3566 19.6174 31.7586 19.7467 32.1683 19.8128C32.4112 19.8521 32.5074 19.9566 32.495 20.2067C32.4817 20.543 32.495 20.8783 32.495 21.2137ZM28.394 21.2262C28.4111 18.6764 26.3544 16.5962 23.8023 16.5799C21.3092 16.5646 19.2125 18.6439 19.1916 21.1524C19.1696 23.7155 21.2016 25.8092 23.7442 25.8427C26.2953 25.8762 28.3768 23.8094 28.394 21.2262Z" fill="white"/>
<path d="M23.788 24.7657C21.8627 24.7743 20.269 23.1809 20.2566 21.2358C20.2442 19.2696 21.8446 17.6531 23.8032 17.6512C25.7333 17.6502 27.3213 19.2427 27.328 21.1869C27.3346 23.1742 25.7685 24.758 23.788 24.7657Z" fill="white"/>
</svg>

