<svg width="27" height="33" viewBox="0 0 27 33" fill="none" xmlns="http://www.w3.org/2000/svg">
<path d="M0 6.6C0 3.0228 6.18131 0 13.5 0C20.8187 0 27 3.0228 27 6.6V9.9C27 13.4772 20.8187 16.5 13.5 16.5C6.18131 16.5 0 13.4772 0 9.9V6.6ZM13.5 28.05C20.8187 28.05 27 25.0272 27 21.45V26.4C27 29.9772 20.8187 33 13.5 33C6.18131 33 0 29.9772 0 26.4V21.45C0 25.0272 6.18131 28.05 13.5 28.05Z" fill="white"/>
<path d="M0 13.2C0 16.7772 6.18131 19.8 13.5 19.8C20.8187 19.8 27 16.7772 27 13.2V18.15C27 21.7272 20.8187 24.75 13.5 24.75C6.18131 24.75 0 21.7272 0 18.15V13.2Z" fill="white"/>
</svg>

