<svg width="199" height="31" viewBox="0 0 199 31" fill="none" xmlns="http://www.w3.org/2000/svg">
  <g opacity=".15">
    <path d="M12.1756 22.0714L18.6205 0.376645H24.8962L15.3699 27.7964H11.2362L12.1756 22.0714ZM6.23814 0.376645L12.6642 22.0714L13.6412 27.7964H9.46994L0 0.376645H6.23814Z" fill="#224170" />
    <animate attributeName="opacity" values=".125;1" dur="0.125s" begin=".0s" fill="freeze" />
  </g>

  <g opacity=".15">
    <path d="M35.5311 13.8982V18.1543H24.915V13.8982H35.5311Z" fill="#224170" />
    <animate attributeName="opacity" values=".125;1" dur="0.125s" begin=".125s" fill="freeze" />
  </g>

  <g opacity=".15">
    <path d="M62.8511 13.4462V14.7457C62.8511 16.8298 62.5693 18.7004 62.0056 20.3577C61.4419 22.0149 60.6465 23.4273 59.6193 24.5949C58.5921 25.75 57.3646 26.6351 55.9365 27.2503C54.5211 27.8655 52.949 28.1731 51.2204 28.1731C49.5043 28.1731 47.9322 27.8655 46.5042 27.2503C45.0887 26.6351 43.8611 25.75 42.8214 24.5949C41.7817 23.4273 40.9738 22.0149 40.3976 20.3577C39.8339 18.7004 39.552 16.8298 39.552 14.7457V13.4462C39.552 11.3496 39.8339 9.47891 40.3976 7.83423C40.9613 6.17699 41.7567 4.76457 42.7838 3.59696C43.8235 2.42936 45.0511 1.53797 46.4666 0.922781C47.8946 0.307594 49.4667 0 51.1828 0C52.9114 0 54.4835 0.307594 55.899 0.922781C57.327 1.53797 58.5546 2.42936 59.5817 3.59696C60.6214 4.76457 61.4231 6.17699 61.9868 7.83423C62.563 9.47891 62.8511 11.3496 62.8511 13.4462ZM57.1579 14.7457V13.4086C57.1579 11.9522 57.0263 10.6716 56.7633 9.56679C56.5002 8.46197 56.1119 7.53291 55.5983 6.77962C55.0848 6.02633 54.4584 5.46136 53.7194 5.08471C52.9803 4.69551 52.1348 4.50091 51.1828 4.50091C50.2308 4.50091 49.3852 4.69551 48.6462 5.08471C47.9197 5.46136 47.2996 6.02633 46.786 6.77962C46.285 7.53291 45.9029 8.46197 45.6399 9.56679C45.3768 10.6716 45.2453 11.9522 45.2453 13.4086V14.7457C45.2453 16.1895 45.3768 17.4701 45.6399 18.5875C45.9029 19.6923 46.2912 20.6276 46.8048 21.3935C47.3184 22.1468 47.9447 22.718 48.6838 23.1072C49.4228 23.4964 50.2684 23.691 51.2204 23.691C52.1724 23.691 53.0179 23.4964 53.757 23.1072C54.496 22.718 55.1161 22.1468 55.6171 21.3935C56.1182 20.6276 56.5002 19.6923 56.7633 18.5875C57.0263 17.4701 57.1579 16.1895 57.1579 14.7457Z" fill="#224170" />
    <animate attributeName="opacity" values=".125;1" dur="0.125s" begin=".25s" fill="freeze" />
  </g>

  <g opacity=".15">
    <path d="M81.1521 20.6213C81.1521 20.1317 81.077 19.6923 80.9267 19.3031C80.7889 18.9013 80.5258 18.5372 80.1375 18.2108C79.7492 17.8718 79.2043 17.5391 78.5028 17.2127C77.8013 16.8863 76.8932 16.5473 75.7783 16.1958C74.5382 15.794 73.3607 15.342 72.2459 14.8398C71.1436 14.3376 70.1665 13.7538 69.3147 13.0884C68.4755 12.4105 67.8116 11.6258 67.323 10.7344C66.847 9.843 66.609 8.80723 66.609 7.62707C66.609 6.48458 66.8595 5.4488 67.3606 4.51975C67.8617 3.57813 68.5631 2.77462 69.465 2.10921C70.3669 1.43125 71.4317 0.910227 72.6593 0.546136C73.8994 0.182045 75.2585 0 76.7366 0C78.7533 0 80.5133 0.364091 82.0165 1.09227C83.5196 1.82045 84.6846 2.81856 85.5113 4.0866C86.3506 5.35464 86.7702 6.80473 86.7702 8.43686H81.1709C81.1709 7.63335 81.0018 6.93028 80.6636 6.32764C80.3379 5.71246 79.8369 5.22909 79.1605 4.87756C78.4966 4.52602 77.6573 4.35026 76.6427 4.35026C75.6656 4.35026 74.8514 4.50091 74.2 4.80223C73.5486 5.09099 73.0601 5.48647 72.7344 5.98866C72.4087 6.4783 72.2459 7.03072 72.2459 7.6459C72.2459 8.11043 72.3586 8.53102 72.5841 8.90767C72.8221 9.28431 73.1728 9.63585 73.6363 9.96227C74.0998 10.2887 74.6697 10.5963 75.3462 10.8851C76.0226 11.1738 76.8055 11.4563 77.6949 11.7325C79.1855 12.1845 80.4945 12.693 81.6219 13.2579C82.7618 13.8229 83.7138 14.4569 84.4779 15.16C85.242 15.8631 85.8182 16.6603 86.2065 17.5517C86.5949 18.4431 86.789 19.4537 86.789 20.5837C86.789 21.7764 86.5573 22.8435 86.0938 23.7852C85.6303 24.7268 84.9602 25.524 84.0833 26.1769C83.2065 26.8297 82.1605 27.3256 80.9455 27.6646C79.7304 28.0036 78.3713 28.1731 76.8681 28.1731C75.5153 28.1731 74.1812 27.9973 72.8659 27.6458C71.5507 27.2817 70.3544 26.7356 69.2771 26.0074C68.2124 25.2792 67.3606 24.3501 66.7218 23.2202C66.0829 22.0903 65.7635 20.7532 65.7635 19.2089H71.4192C71.4192 20.0626 71.5507 20.7846 71.8137 21.3746C72.0768 21.9647 72.4463 22.4418 72.9223 22.8059C73.4108 23.17 73.9871 23.4336 74.651 23.5968C75.3274 23.7601 76.0664 23.8417 76.8681 23.8417C77.8452 23.8417 78.6469 23.7036 79.2732 23.4273C79.912 23.1511 80.3818 22.7682 80.6824 22.2786C80.9956 21.7889 81.1521 21.2365 81.1521 20.6213Z" fill="#224170" />
    <animate attributeName="opacity" values=".125;1" dur="0.125s" begin=".375s" fill="freeze" />
  </g>

  <g opacity=".15">
    <path d="M96.616 0.376645V27.7964H90.9979V0.376645H96.616Z" fill="#224170" />
    <animate attributeName="opacity" values=".125;1" dur="0.125s" begin=".5s" fill="freeze" />
  </g>

  <g opacity=".15">
    <path d="M124.161 0.376645V27.7964H118.525L107.533 9.41614V27.7964H101.896V0.376645H107.533L118.543 18.7758V0.376645H124.161Z" fill="#224170" />
    <animate attributeName="opacity" values=".125;1" dur="0.125s" begin=".625s" fill="freeze" />
  </g>

  <g opacity=".15">
    <path d="M140.734 0.376645V27.7964H135.116V0.376645H140.734ZM149.152 0.376645V4.80223H126.83V0.376645H149.152Z" fill="#224170" />
    <animate attributeName="opacity" values=".125;1" dur="0.125s" begin=".75s" fill="freeze" />
  </g>

  <g opacity=".15">
    <circle cx="175.253" cy="2.07155" r="2.07155" fill="#FF6B00" />
    <circle cx="181.882" cy="9.52859" r="3.72879" fill="#FF6B00" />
    <circle cx="171.939" cy="14.5008" r="2.40017" stroke="#FF6B00" />
    <line x1="176.021" y1="2.9609" x2="180.164" y2="7.104" stroke="#FF6B00" />
    <line x1="180.863" y1="10.3906" x2="174.234" y2="13.7051" stroke="#FF6B00" />
    <path d="M159.352 20.986L156.816 27.9658H155.78L158.699 20.3075H159.367L159.352 20.986ZM161.477 27.9658L158.936 20.986L158.92 20.3075H159.588L162.518 27.9658H161.477ZM161.345 25.1307V25.9618H157.043V25.1307H161.345Z" fill="#224170" />
    <path d="M164.37 23.4897V27.9658H163.396V22.2747H164.317L164.37 23.4897ZM164.138 24.9046L163.733 24.8888C163.737 24.4996 163.794 24.1401 163.907 23.8105C164.019 23.4774 164.177 23.1881 164.38 22.9427C164.583 22.6972 164.825 22.5078 165.106 22.3746C165.39 22.2378 165.704 22.1695 166.047 22.1695C166.328 22.1695 166.58 22.208 166.805 22.2852C167.029 22.3588 167.22 22.478 167.378 22.6429C167.539 22.8077 167.662 23.0216 167.746 23.2845C167.83 23.544 167.873 23.8614 167.873 24.2366V27.9658H166.894V24.226C166.894 23.928 166.85 23.6896 166.763 23.5107C166.675 23.3284 166.547 23.1969 166.379 23.1162C166.21 23.0321 166.004 22.99 165.758 22.99C165.516 22.99 165.295 23.0408 165.095 23.1425C164.899 23.2442 164.729 23.3845 164.585 23.5633C164.445 23.7421 164.334 23.9473 164.254 24.1787C164.177 24.4066 164.138 24.6486 164.138 24.9046Z" fill="#224170" />
    <path d="M172.706 26.9927V24.063C172.706 23.8386 172.661 23.644 172.57 23.4792C172.482 23.3108 172.349 23.1811 172.17 23.0899C171.991 22.9988 171.77 22.9532 171.507 22.9532C171.262 22.9532 171.046 22.9953 170.86 23.0794C170.678 23.1636 170.534 23.274 170.429 23.4108C170.327 23.5475 170.276 23.6948 170.276 23.8526H169.303C169.303 23.6492 169.356 23.4476 169.461 23.2477C169.566 23.0479 169.717 22.8673 169.913 22.706C170.113 22.5412 170.352 22.4114 170.629 22.3167C170.909 22.2186 171.221 22.1695 171.565 22.1695C171.979 22.1695 172.343 22.2396 172.659 22.3799C172.978 22.5201 173.227 22.7323 173.406 23.0163C173.588 23.2968 173.679 23.6492 173.679 24.0735V26.7245C173.679 26.9138 173.695 27.1154 173.727 27.3293C173.762 27.5432 173.813 27.7273 173.879 27.8816V27.9658H172.864C172.815 27.8536 172.776 27.7045 172.748 27.5187C172.72 27.3293 172.706 27.154 172.706 26.9927ZM172.875 24.5153L172.885 25.1991H171.902C171.625 25.1991 171.377 25.2219 171.16 25.2675C170.943 25.3096 170.76 25.3744 170.613 25.4621C170.466 25.5498 170.353 25.6602 170.276 25.7935C170.199 25.9232 170.161 26.0757 170.161 26.2511C170.161 26.4299 170.201 26.593 170.282 26.7402C170.362 26.8875 170.483 27.005 170.644 27.0926C170.809 27.1768 171.011 27.2189 171.249 27.2189C171.547 27.2189 171.81 27.1558 172.038 27.0295C172.266 26.9033 172.447 26.749 172.58 26.5667C172.717 26.3843 172.79 26.2072 172.801 26.0354L173.216 26.5035C173.192 26.6508 173.125 26.8139 173.017 26.9927C172.908 27.1715 172.762 27.3434 172.58 27.5082C172.401 27.6695 172.187 27.8045 171.938 27.9132C171.693 28.0184 171.416 28.071 171.107 28.071C170.722 28.071 170.383 27.9956 170.092 27.8448C169.805 27.694 169.58 27.4924 169.419 27.2399C169.261 26.9839 169.182 26.6982 169.182 26.3826C169.182 26.0775 169.242 25.8092 169.361 25.5778C169.48 25.3429 169.652 25.1483 169.877 24.994C170.101 24.8362 170.371 24.717 170.687 24.6363C171.002 24.5557 171.355 24.5153 171.744 24.5153H172.875Z" fill="#224170" />
    <path d="M176.267 19.8867V27.9658H175.289V19.8867H176.267Z" fill="#224170" />
    <path d="M179.428 27.3767L181.012 22.2747H182.053L179.77 28.8441C179.718 28.9844 179.647 29.1352 179.56 29.2965C179.476 29.4613 179.367 29.6173 179.234 29.7646C179.1 29.9119 178.939 30.0311 178.75 30.1223C178.564 30.217 178.341 30.2643 178.082 30.2643C178.005 30.2643 177.906 30.2538 177.787 30.2327C177.668 30.2117 177.584 30.1942 177.535 30.1801L177.53 29.3912C177.558 29.3947 177.601 29.3982 177.661 29.4017C177.724 29.4087 177.768 29.4122 177.793 29.4122C178.013 29.4122 178.201 29.3824 178.355 29.3228C178.51 29.2667 178.639 29.1703 178.745 29.0335C178.853 28.9003 178.946 28.7162 179.023 28.4812L179.428 27.3767ZM178.266 22.2747L179.744 26.6929L179.996 27.7186L179.297 28.0762L177.203 22.2747H178.266Z" fill="#224170" />
    <path d="M185.314 22.2747V23.0216H182.237V22.2747H185.314ZM183.278 20.8913H184.252V26.5561C184.252 26.749 184.281 26.8945 184.341 26.9927C184.401 27.0909 184.478 27.1558 184.572 27.1873C184.667 27.2189 184.769 27.2347 184.877 27.2347C184.958 27.2347 185.042 27.2276 185.13 27.2136C185.221 27.1961 185.289 27.1821 185.335 27.1715L185.34 27.9658C185.263 27.9903 185.161 28.0131 185.035 28.0341C184.913 28.0587 184.763 28.071 184.588 28.071C184.35 28.071 184.131 28.0236 183.931 27.9289C183.731 27.8343 183.571 27.6765 183.452 27.4556C183.336 27.2311 183.278 26.9296 183.278 26.5509V20.8913Z" fill="#224170" />
    <path d="M187.513 22.2747V27.9658H186.534V22.2747H187.513ZM186.461 20.7651C186.461 20.6073 186.508 20.4741 186.603 20.3654C186.701 20.2567 186.845 20.2023 187.034 20.2023C187.22 20.2023 187.362 20.2567 187.46 20.3654C187.562 20.4741 187.613 20.6073 187.613 20.7651C187.613 20.9159 187.562 21.0456 187.46 21.1543C187.362 21.2595 187.22 21.3121 187.034 21.3121C186.845 21.3121 186.701 21.2595 186.603 21.1543C186.508 21.0456 186.461 20.9159 186.461 20.7651Z" fill="#224170" />
    <path d="M191.352 27.2715C191.584 27.2715 191.798 27.2241 191.994 27.1295C192.19 27.0348 192.352 26.905 192.478 26.7402C192.604 26.5719 192.676 26.3808 192.694 26.1669H193.619C193.602 26.5035 193.488 26.8174 193.277 27.1084C193.07 27.396 192.799 27.6291 192.462 27.808C192.125 27.9833 191.756 28.071 191.352 28.071C190.924 28.071 190.551 27.9956 190.232 27.8448C189.916 27.694 189.653 27.4871 189.443 27.2241C189.236 26.9611 189.08 26.6596 188.975 26.3194C188.873 25.9758 188.822 25.6129 188.822 25.2307V25.0098C188.822 24.6275 188.873 24.2664 188.975 23.9262C189.08 23.5826 189.236 23.2793 189.443 23.0163C189.653 22.7533 189.916 22.5464 190.232 22.3956C190.551 22.2449 190.924 22.1695 191.352 22.1695C191.798 22.1695 192.187 22.2606 192.52 22.443C192.853 22.6218 193.114 22.8673 193.304 23.1794C193.497 23.4879 193.602 23.8386 193.619 24.2313H192.694C192.676 23.9964 192.609 23.7842 192.494 23.5949C192.381 23.4055 192.227 23.2547 192.031 23.1425C191.838 23.0268 191.612 22.969 191.352 22.969C191.054 22.969 190.803 23.0286 190.6 23.1478C190.4 23.2635 190.241 23.4213 190.121 23.6212C190.006 23.8175 189.922 24.0367 189.869 24.2786C189.82 24.5171 189.795 24.7608 189.795 25.0098V25.2307C189.795 25.4796 189.82 25.7251 189.869 25.967C189.918 26.209 190.001 26.4282 190.116 26.6245C190.235 26.8209 190.395 26.9787 190.595 27.0979C190.798 27.2136 191.051 27.2715 191.352 27.2715Z" fill="#224170" />
    <path d="M198.027 26.4562C198.027 26.3159 197.995 26.1862 197.932 26.067C197.873 25.9442 197.748 25.8338 197.559 25.7356C197.373 25.6339 197.092 25.5463 196.717 25.4726C196.402 25.406 196.116 25.3271 195.86 25.2359C195.607 25.1448 195.392 25.0343 195.213 24.9046C195.038 24.7748 194.903 24.6223 194.808 24.447C194.713 24.2716 194.666 24.0665 194.666 23.8316C194.666 23.6071 194.715 23.395 194.813 23.1951C194.915 22.9953 195.057 22.8182 195.239 22.6639C195.425 22.5096 195.648 22.3886 195.907 22.301C196.167 22.2133 196.456 22.1695 196.775 22.1695C197.231 22.1695 197.62 22.2501 197.943 22.4114C198.265 22.5727 198.513 22.7884 198.684 23.0584C198.856 23.3249 198.942 23.6212 198.942 23.9473H197.969C197.969 23.7895 197.922 23.637 197.827 23.4897C197.736 23.3389 197.601 23.2144 197.422 23.1162C197.247 23.0181 197.031 22.969 196.775 22.969C196.505 22.969 196.286 23.011 196.118 23.0952C195.953 23.1758 195.832 23.2793 195.755 23.4055C195.681 23.5318 195.644 23.665 195.644 23.8053C195.644 23.9105 195.662 24.0051 195.697 24.0893C195.735 24.1699 195.802 24.2453 195.897 24.3155C195.991 24.3821 196.125 24.4452 196.296 24.5048C196.468 24.5644 196.687 24.624 196.954 24.6837C197.42 24.7888 197.804 24.9151 198.106 25.0624C198.407 25.2096 198.632 25.3902 198.779 25.6041C198.926 25.818 199 26.0775 199 26.3826C199 26.6315 198.947 26.8595 198.842 27.0663C198.741 27.2732 198.592 27.4521 198.395 27.6028C198.202 27.7501 197.971 27.8658 197.701 27.95C197.434 28.0306 197.135 28.071 196.801 28.071C196.3 28.071 195.876 27.9815 195.529 27.8027C195.181 27.6239 194.918 27.3924 194.74 27.1084C194.561 26.8244 194.471 26.5246 194.471 26.209H195.45C195.464 26.4755 195.541 26.6876 195.681 26.8454C195.821 26.9997 195.993 27.1102 196.197 27.1768C196.4 27.2399 196.602 27.2715 196.801 27.2715C197.068 27.2715 197.291 27.2364 197.469 27.1663C197.652 27.0961 197.79 26.9997 197.885 26.877C197.98 26.7543 198.027 26.614 198.027 26.4562Z" fill="#224170" />
    <animate attributeName="opacity" values=".125;1" dur="0.125s" begin="1s" fill="freeze" />
  </g>

</svg>
  