<svg width="33" height="27" viewBox="0 0 33 27" fill="none" xmlns="http://www.w3.org/2000/svg">
<path d="M24.3375 2.86853e-08C25.2782 -0.000118162 26.1839 0.364998 26.8715 1.02156C27.5591 1.67812 27.9774 2.57717 28.0418 3.537L28.05 3.79688V22.7812C28.0496 22.9921 28.1264 23.1954 28.2653 23.3513C28.4042 23.5071 28.5951 23.6041 28.8005 23.6231C29.0058 23.6422 29.2106 23.5819 29.3747 23.4542C29.5387 23.3265 29.6501 23.1406 29.6868 22.9331L29.7 22.7812V5.08612C30.5612 5.1846 31.3616 5.58809 31.9625 6.22668C32.5634 6.86527 32.9269 7.69872 32.9901 8.58263L33 8.85938V21.5156C33.0001 22.9165 32.476 24.2643 31.5353 25.2825C30.5946 26.3008 29.3086 26.9123 27.9411 26.9916L27.6375 27H5.3625C3.99277 27.0001 2.67493 26.4641 1.67932 25.5021C0.683705 24.54 0.0857978 23.2247 0.00825022 21.8261L2.80479e-08 21.5156V3.79688C-0.000115536 2.83479 0.356887 1.90853 0.998859 1.20529C1.64083 0.502056 2.5199 0.0742873 3.4584 0.00843772L3.7125 2.86853e-08H24.3375ZM11.9592 11.8125H6.1842C5.85599 11.8125 5.54123 11.9458 5.30916 12.1832C5.07708 12.4205 4.9467 12.7425 4.9467 13.0781V18.9844C4.9467 19.683 5.5011 20.25 6.1842 20.25H11.9592C12.2874 20.25 12.6022 20.1167 12.8342 19.8793C13.0663 19.642 13.1967 19.32 13.1967 18.9844V13.0781C13.1967 12.7425 13.0663 12.4205 12.8342 12.1832C12.6022 11.9458 12.2874 11.8125 11.9592 11.8125ZM21.8658 17.7188H17.7441L17.5758 17.7306C17.2652 17.7743 16.9824 17.9369 16.7845 18.1857C16.5867 18.4344 16.4885 18.7507 16.5099 19.0706C16.5312 19.3906 16.6705 19.6903 16.8996 19.9092C17.1287 20.1281 17.4306 20.2499 17.7441 20.25H21.8658L22.0341 20.2382C22.3447 20.1945 22.6275 20.0318 22.8254 19.7831C23.0232 19.5343 23.1214 19.218 23.1 18.8981C23.0787 18.5782 22.9394 18.2785 22.7103 18.0596C22.4812 17.8407 22.1793 17.7188 21.8658 17.7188ZM10.7217 14.3438V17.7188H7.4217V14.3438H10.7217ZM21.8625 11.8125L17.7408 11.8209L17.5725 11.8311C17.2589 11.8717 16.9723 12.0335 16.7717 12.2833C16.571 12.5331 16.4714 12.852 16.4934 13.1746C16.5153 13.4971 16.6571 13.7988 16.8897 14.0178C17.1223 14.2368 17.428 14.3564 17.7441 14.3522L21.8674 14.3438L22.0341 14.3319C22.3449 14.2882 22.6278 14.1254 22.8256 13.8765C23.0235 13.6276 23.1216 13.3111 23.1 12.991C23.0784 12.671 22.9388 12.3712 22.7094 12.1525C22.4799 11.9337 22.1762 11.8122 21.8625 11.8125ZM21.8642 5.913H6.1842L6.0159 5.92481C5.70529 5.96852 5.42248 6.13118 5.22461 6.37993C5.02675 6.62868 4.92859 6.94497 4.94996 7.26489C4.97133 7.58481 5.11064 7.88451 5.33974 8.10342C5.56885 8.32234 5.87066 8.44415 6.1842 8.44425H21.8658L22.0341 8.43412C22.3474 8.39349 22.6336 8.2319 22.8342 7.98245C23.0348 7.733 23.1345 7.41457 23.113 7.09235C23.0915 6.77014 22.9504 6.46852 22.7185 6.24927C22.4866 6.03002 22.1799 5.90972 21.8642 5.913Z" fill="white"/>
</svg>

