<svg width="35" height="33" viewBox="0 0 35 33" fill="none" xmlns="http://www.w3.org/2000/svg">
<path d="M27.3913 6C27.3913 9.31371 24.6661 12 21.3044 12C17.9426 12 15.2174 9.31371 15.2174 6C15.2174 2.68629 17.9426 0 21.3044 0C24.6661 0 27.3913 2.68629 27.3913 6Z" fill="white"/>
<path d="M11.5652 7.20001C11.5652 9.5196 9.65757 11.4 7.30435 11.4C4.95114 11.4 3.04348 9.5196 3.04348 7.20001C3.04348 4.88041 4.95114 3 7.30435 3C9.65757 3 11.5652 4.88041 11.5652 7.20001Z" fill="white"/>
<path d="M10.3478 17.1C11.0783 13.62 14.7101 12.7 16.4348 12.6L21.3044 23.85L25.8696 12.6C30.2522 13.08 31.9565 15.8 32.2609 17.1V24.6H30.4348V19.2H26.4783V24.6H21.3044V28.5H26.4783V30H10.3478V17.1Z" fill="white"/>
<path d="M23.1304 12.9H19.4783L20.3913 15L19.9348 19.2L21.3044 21.3L22.5217 19.2L22.0652 15L23.1304 12.9Z" fill="white"/>
<path d="M29.8261 19.8H27.087V25.1999H21.913V27.8999H27.087V33H29.8261V27.8999H35V25.1999H29.8261V19.8Z" fill="white"/>
<path d="M10.3478 12L7.30435 14.7L4.26087 12C1.38653 12 0.289086 15.3081 0 16.7975V26.3975H14.6087V16.7975C13.8158 13.0906 11.5652 12 10.3478 12Z" fill="white"/>
</svg>

