<svg width="23" height="31" viewBox="0 0 23 31" fill="none" xmlns="http://www.w3.org/2000/svg">
<path d="M15.3333 0.96875C15.3333 0.711822 15.2324 0.465416 15.0526 0.28374C14.8729 0.102064 14.6292 0 14.375 0H8.62499C8.37083 0 8.12707 0.102064 7.94735 0.28374C7.76763 0.465416 7.66666 0.711822 7.66666 0.96875C7.66666 1.22568 7.56569 1.47208 7.38597 1.65376C7.20625 1.83544 6.96249 1.9375 6.70833 1.9375C6.45416 1.9375 6.2104 2.03956 6.03068 2.22124C5.85096 2.40292 5.74999 2.64932 5.74999 2.90625V3.875C5.74999 4.13193 5.85096 4.37833 6.03068 4.56001C6.2104 4.74169 6.45416 4.84375 6.70833 4.84375H16.2917C16.5458 4.84375 16.7896 4.74169 16.9693 4.56001C17.149 4.37833 17.25 4.13193 17.25 3.875V2.90625C17.25 2.64932 17.149 2.40292 16.9693 2.22124C16.7896 2.03956 16.5458 1.9375 16.2917 1.9375C16.0375 1.9375 15.7937 1.83544 15.614 1.65376C15.4343 1.47208 15.3333 1.22568 15.3333 0.96875Z" fill="white"/>
<path d="M3.99625 1.9375H2.875C2.1125 1.9375 1.38124 2.24369 0.842068 2.78872C0.302901 3.33375 0 4.07296 0 4.84375V28.0938C0 28.8645 0.302901 29.6038 0.842068 30.1488C1.38124 30.6938 2.1125 31 2.875 31H20.125C20.8875 31 21.6188 30.6938 22.1579 30.1488C22.6971 29.6038 23 28.8645 23 28.0938V4.84375C23 4.07296 22.6971 3.33375 22.1579 2.78872C21.6188 2.24369 20.8875 1.9375 20.125 1.9375H19.0037C19.1092 2.23975 19.1667 2.56719 19.1667 2.90625V3.875C19.1667 4.64578 18.8638 5.385 18.3246 5.93003C17.7854 6.47505 17.0542 6.78125 16.2917 6.78125H6.70833C5.94584 6.78125 5.21457 6.47505 4.6754 5.93003C4.13623 5.385 3.83333 4.64578 3.83333 3.875V2.90625C3.83333 2.56719 3.89083 2.23975 3.99625 1.9375ZM15.3333 13.5625C15.3333 13.0486 15.5353 12.5558 15.8947 12.1925C16.2542 11.8291 16.7417 11.625 17.25 11.625C17.7583 11.625 18.2458 11.8291 18.6053 12.1925C18.9647 12.5558 19.1667 13.0486 19.1667 13.5625V23.25C19.1667 23.7639 18.9647 24.2567 18.6053 24.62C18.2458 24.9834 17.7583 25.1875 17.25 25.1875C16.7417 25.1875 16.2542 24.9834 15.8947 24.62C15.5353 24.2567 15.3333 23.7639 15.3333 23.25V13.5625ZM3.83333 21.3125C3.83333 20.7986 4.03527 20.3058 4.39471 19.9425C4.75416 19.5791 5.24167 19.375 5.75 19.375C6.25833 19.375 6.74584 19.5791 7.10529 19.9425C7.46473 20.3058 7.66667 20.7986 7.66667 21.3125V23.25C7.66667 23.7639 7.46473 24.2567 7.10529 24.62C6.74584 24.9834 6.25833 25.1875 5.75 25.1875C5.24167 25.1875 4.75416 24.9834 4.39471 24.62C4.03527 24.2567 3.83333 23.7639 3.83333 23.25V21.3125ZM11.5 15.5C12.0083 15.5 12.4958 15.7041 12.8553 16.0675C13.2147 16.4308 13.4167 16.9236 13.4167 17.4375V23.25C13.4167 23.7639 13.2147 24.2567 12.8553 24.62C12.4958 24.9834 12.0083 25.1875 11.5 25.1875C10.9917 25.1875 10.5042 24.9834 10.1447 24.62C9.78527 24.2567 9.58333 23.7639 9.58333 23.25V17.4375C9.58333 16.9236 9.78527 16.4308 10.1447 16.0675C10.5042 15.7041 10.9917 15.5 11.5 15.5Z" fill="white"/>
</svg>

