<svg width="41" height="27" viewBox="0 0 41 27" fill="none" xmlns="http://www.w3.org/2000/svg">
<path d="M40.5 17.725C40.5 18.7 38.5 19.35 36.1667 19.675C34.6667 16.9125 31.6667 14.8 28.1667 13.3375C28.5 12.85 28.8333 12.525 29.1667 12.0375H30.5C35.6667 11.875 40.5 14.9625 40.5 17.725ZM11.8333 11.875H10.5C5.33333 11.875 0.5 14.9625 0.5 17.725C0.5 18.7 2.5 19.35 4.83333 19.675C6.33333 16.9125 9.33333 14.8 12.8333 13.3375L11.8333 11.875ZM20.5 13.5C24.1667 13.5 27.1667 10.575 27.1667 7C27.1667 3.425 24.1667 0.5 20.5 0.5C16.8333 0.5 13.8333 3.425 13.8333 7C13.8333 10.575 16.8333 13.5 20.5 13.5ZM20.5 15.125C13.6667 15.125 7.16667 19.35 7.16667 23.25C7.16667 26.5 20.5 26.5 20.5 26.5C20.5 26.5 33.8333 26.5 33.8333 23.25C33.8333 19.35 27.3333 15.125 20.5 15.125ZM30 10.25H30.5C33.3333 10.25 35.5 8.1375 35.5 5.375C35.5 2.6125 33.3333 0.5 30.5 0.5C29.6667 0.5 29 0.6625 28.3333 0.9875C29.6667 2.6125 30.5 4.725 30.5 7C30.5 8.1375 30.3333 9.275 30 10.25ZM10.5 10.25H11C10.6667 9.275 10.5 8.1375 10.5 7C10.5 4.725 11.3333 2.6125 12.6667 0.9875C12 0.6625 11.3333 0.5 10.5 0.5C7.66667 0.5 5.5 2.6125 5.5 5.375C5.5 8.1375 7.66667 10.25 10.5 10.25Z" fill="white"/>
</svg>

